<svg xmlns="http://www.w3.org/2000/svg" width="500" height="500" style="width:100%;height:100%;transform:translate3d(0,0,0);content-visibility:visible" viewBox="0 0 500 500"><defs><clipPath id="a"><path d="M0 0h500v500H0z"/></clipPath></defs><g clip-path="url(#a)"><g fill="#EBE6EF" style="display:block"><path d="M249.543 89.49V235.8c-36.34 0-72.67-8.52-90.75-25.57l2.55-45.55c2.36-42.18 37.26-75.19 79.51-75.19h8.69z"/><path d="M45.375-66.495v1c-37.35 5.88-66.51 37.12-68.68 76l-3.131 55.99c-7.47-3.42-13.909-7.5-18.939-12.25l2.55-45.55c2.36-42.18 37.26-75.19 79.51-75.19h8.69z" opacity=".5" style="mix-blend-mode:multiply" transform="translate(204.168 155.98)"/><path d="M36.684-73.156c-42.255 0-77.155 33.004-79.512 75.193l-2.545 45.543c18.071 17.05 54.409 25.576 90.746 25.576V-73.156h-8.689z" opacity=".5" style="mix-blend-mode:multiply" transform="translate(204.166 162.645)"/><path d="M36.684-73.156c-42.255 0-77.155 33.004-79.512 75.193l-2.545 45.543c18.071 17.05 54.409 25.576 90.746 25.576V-73.156h-8.689z" opacity=".5" style="mix-blend-mode:multiply" transform="translate(204.166 163.219)"/></g><g style="display:block"><path fill="#EBE6EF" d="M346.208 308.383 338.2 165.076c-2.357-42.189-37.256-75.193-79.511-75.193h-8.688v146.31c-36.338 0-72.665-8.52-90.746-25.567l-5.463 97.757C150.705 363.626 194.67 410.117 250 410.117s99.295-46.491 96.208-101.734z"/><path fill="#EBE6EF" d="M45.992 47.58 43.448 2.037C41.091-40.152 6.192-73.155-36.064-73.155h-9.928 1.239v146.31c36.337 0 72.674-8.524 90.745-25.575z" opacity=".5" style="mix-blend-mode:multiply" transform="translate(294.753 163.037)"/><path fill="#606874" d="M249.743 202.868h2.514c7.637 0 13.828-6.191 13.828-13.828v-39.748c0-7.637-6.191-13.828-13.828-13.828h-2.514c-7.637 0-13.828 6.191-13.828 13.828v39.748c0 7.637 6.191 13.828 13.828 13.828z"/><path fill="#EBE6EF" d="M36.986 98.44c-44.29-10.53-76.47-51.58-73.82-99.12l5.461-97.76c5.03 4.75 11.469 8.83 18.939 12.25l-5.07 90.78c-2.28 40.75 20.43 76.84 54.49 93.85z" opacity=".5" style="mix-blend-mode:multiply" transform="translate(190.624 309.063)"/><path fill="#606874" d="M-1.974 19.874v-39.748c0-6.797 4.909-12.437 11.373-13.597a13.797 13.797 0 0 0-2.456-.231H4.429c-7.637 0-13.828 6.191-13.828 13.828v39.748c0 7.637 6.191 13.828 13.828 13.828h2.514c.84 0 1.658-.087 2.456-.23-6.464-1.161-11.373-6.8-11.373-13.598z" opacity=".5" style="mix-blend-mode:multiply" transform="translate(245.314 169.733)"/></g><path fill="none" stroke="#121331" stroke-linecap="round" stroke-linejoin="round" stroke-width="7" d="M0-175.901v-44.588m0 146.31v-32.326m-90.745 6.756c36.143 34.101 145.347 34.101 181.49 0m-92.002-7.753h2.514c7.637 0 13.828-6.191 13.828-13.828v-39.747c0-7.637-6.191-13.828-13.828-13.828h-2.514c-7.637 0-13.828 6.191-13.828 13.828v39.747c0 7.637 6.191 13.828 13.828 13.828zm92.002 7.753 5.463 97.764C99.295 53.259 55.33 99.749 0 99.749c0 0 0 0 0 0-55.33 0-99.295-46.49-96.208-101.734l5.463-97.764m0 0 2.545-45.543c2.357-42.189 37.256-75.193 79.511-75.193l8.689.001m0 0h8.689c42.255 0 77.154 33.003 79.511 75.192l2.545 45.543" style="display:block" transform="translate(250 310.37)"/><g style="display:block"><path fill="#2CA58D" d="M134.686 143.259c0 17.822 14.447 32.269 32.269 32.269s32.269-14.447 32.269-32.269-14.447-32.269-32.269-32.269-32.269 14.447-32.269 32.269z"/><path fill="none" stroke="#121331" stroke-linecap="round" stroke-linejoin="round" stroke-width="7" d="M134.686 143.259c0 17.822 14.447 32.269 32.269 32.269s32.269-14.447 32.269-32.269-14.447-32.269-32.269-32.269-32.269 14.447-32.269 32.269zm32.269-61.064c-33.725 0-61.064 27.339-61.064 61.064"/><path fill="none" stroke="#121331" stroke-linecap="round" stroke-linejoin="round" stroke-width="7" d="M159.686 105.464c-16.03 0-29.026 12.996-29.026 29.026" opacity="0"/></g><g class="com" style="display:none"><path/><path/><path/><path/><path/><path/><path/><path/><path/><path/><path/><path/></g></g></svg>